<svg width="48" height="48" viewBox="0 0 48 48" fill="none" xmlns="http://www.w3.org/2000/svg">
<circle cx="24" cy="24" r="23" fill="#201830" stroke="white" stroke-width="2"/>
<path d="M11.4027 29V26.588H8.99067V25.388H11.4027V23H12.6027V25.388H14.9907V26.588H12.6027V29H11.4027ZM19.4259 29.144C18.9539 29.144 18.5099 29.06 18.0939 28.892C17.6779 28.716 17.3179 28.472 17.0139 28.16C16.7099 27.848 16.4939 27.472 16.3659 27.032L17.5539 26.576C17.7059 27 17.9539 27.324 18.2979 27.548C18.6419 27.772 19.0179 27.884 19.4259 27.884C19.7619 27.884 20.0579 27.808 20.3139 27.656C20.5699 27.504 20.7699 27.296 20.9139 27.032C21.0659 26.768 21.1419 26.468 21.1419 26.132C21.1419 25.788 21.0659 25.488 20.9139 25.232C20.7699 24.968 20.5699 24.764 20.3139 24.62C20.0579 24.468 19.7619 24.392 19.4259 24.392C19.0899 24.392 18.7819 24.468 18.5019 24.62C18.2219 24.772 18.0179 24.976 17.8899 25.232L16.7499 24.98L17.4459 20.06H22.2099V21.26H17.9979L18.5379 20.672L18.0219 24.44L17.5779 24.14C17.8179 23.804 18.1099 23.56 18.4539 23.408C18.7979 23.256 19.1899 23.18 19.6299 23.18C20.2139 23.18 20.7219 23.312 21.1539 23.576C21.5939 23.832 21.9339 24.184 22.1739 24.632C22.4219 25.072 22.5459 25.572 22.5459 26.132C22.5459 26.7 22.4099 27.212 22.1379 27.668C21.8659 28.124 21.4939 28.484 21.0219 28.748C20.5579 29.012 20.0259 29.144 19.4259 29.144ZM27.5287 29.144C26.8167 29.144 26.1927 28.952 25.6567 28.568C25.1207 28.176 24.7007 27.636 24.3967 26.948C24.1007 26.252 23.9527 25.444 23.9527 24.524C23.9527 23.596 24.1007 22.788 24.3967 22.1C24.7007 21.412 25.1167 20.876 25.6447 20.492C26.1807 20.108 26.8047 19.916 27.5167 19.916C28.2287 19.916 28.8487 20.108 29.3767 20.492C29.9127 20.876 30.3287 21.416 30.6247 22.112C30.9287 22.8 31.0807 23.604 31.0807 24.524C31.0807 25.444 30.9327 26.252 30.6367 26.948C30.3407 27.636 29.9247 28.176 29.3887 28.568C28.8607 28.952 28.2407 29.144 27.5287 29.144ZM27.5287 27.848C27.9687 27.848 28.3487 27.712 28.6687 27.44C28.9887 27.168 29.2367 26.784 29.4127 26.288C29.5887 25.792 29.6767 25.204 29.6767 24.524C29.6767 23.844 29.5887 23.256 29.4127 22.76C29.2367 22.264 28.9887 21.88 28.6687 21.608C28.3487 21.336 27.9647 21.2 27.5167 21.2C27.0767 21.2 26.6967 21.336 26.3767 21.608C26.0567 21.88 25.8087 22.264 25.6327 22.76C25.4567 23.256 25.3687 23.844 25.3687 24.524C25.3687 25.196 25.4567 25.784 25.6327 26.288C25.8087 26.784 26.0567 27.168 26.3767 27.44C26.7047 27.712 27.0887 27.848 27.5287 27.848ZM32.7345 29V20.06H34.1505V24.908L33.7785 24.764L37.8225 20.06H39.5865L36.0105 24.248L36.0825 23.24L39.7305 29H38.0625L35.4465 24.908L34.1505 26.42V29H32.7345Z" fill="white"/>
</svg>
